HIERARCHY
ROOT Hips
{
  OFFSET 46.0612 95.6686 5.95286
  CHANNELS 6 Xposition Yposition Zposition Zrotation Xrotation Yrotation
  JOINT spine
  {
    OFFSET 0 7.96568 0.458067
    CHANNELS 3 Zrotation Xrotation Yrotation
    JOINT spine1
    {
      OFFSET 0 10.2431 0
      CHANNELS 3 Zrotation Xrotation Yrotation
      JOINT spine2
      {
        OFFSET 0 9.81475 0
        CHANNELS 3 Zrotation Xrotation Yrotation
        JOINT Neck
        {
          OFFSET 0 25.1986 1.20138
          CHANNELS 3 Zrotation Xrotation Yrotation
          JOINT Head
          {
            OFFSET 0 7.61315 0
            CHANNELS 3 Zrotation Xrotation Yrotation
            End Site
            {
              OFFSET 0 18.4281 -6.07733
            }
          }
        }
        JOINT RightShoulder
        {
          OFFSET -4.1327 10.5992 -0.575451
          CHANNELS 3 Zrotation Xrotation Yrotation
          JOINT RightArm
          {
            OFFSET 0 13.9018 0
            CHANNELS 3 Zrotation Xrotation Yrotation
            JOINT RightArmRoll
            {
              OFFSET 0 7.01788 0
              CHANNELS 3 Zrotation Xrotation Yrotation
              JOINT RightForeArm
              {
                OFFSET 0 20.4406 0
                CHANNELS 3 Zrotation Xrotation Yrotation
                JOINT RightForeArmRoll
                {
                  OFFSET 0 7.87515 0
                  CHANNELS 3 Zrotation Xrotation Yrotation
                  JOINT RightHand
                  {
                    OFFSET 0 15.8037 0
                    CHANNELS 3 Zrotation Xrotation Yrotation
                    End Site
                    {
                      OFFSET 0 0 0
                    }
                  }
                }
              }
            }
          }
        }
        JOINT LeftShoulder
        {
          OFFSET 4.1327 10.5992 -0.575451
          CHANNELS 3 Zrotation Xrotation Yrotation
          JOINT LeftArm
          {
            OFFSET 0 13.9018 0
            CHANNELS 3 Zrotation Xrotation Yrotation
            JOINT LeftArmRoll
            {
              OFFSET 0 7.01789 0
              CHANNELS 3 Zrotation Xrotation Yrotation
              JOINT LeftForeArm
              {
                OFFSET 0 20.4406 0
                CHANNELS 3 Zrotation Xrotation Yrotation
                JOINT LeftForeArmRoll
                {
                  OFFSET 0 7.87515 0
                  CHANNELS 3 Zrotation Xrotation Yrotation
                  JOINT LeftHand
                  {
                    OFFSET 0 15.8037 0
                    CHANNELS 3 Zrotation Xrotation Yrotation
                    End Site
                    {
                      OFFSET 0 0 0
                    }
                  }
                }
              }
            }
          }
        }
      }
    }
  }
  JOINT RightUpLeg
  {
    OFFSET -7.06048 -1.2947 -1.0861
    CHANNELS 3 Zrotation Xrotation Yrotation
    JOINT RightUpLegRoll
    {
      OFFSET 0 18.5308 0
      CHANNELS 3 Zrotation Xrotation Yrotation
      JOINT RightLeg
      {
        OFFSET 0 -22.9476 0
        CHANNELS 3 Zrotation Xrotation Yrotation
        JOINT RightLegRoll
        {
          OFFSET 0 23.0226 0
          CHANNELS 3 Zrotation Xrotation Yrotation
          JOINT RightFoot
          {
            OFFSET 0 19.1625 0
            CHANNELS 3 Zrotation Xrotation Yrotation
            JOINT RightToeBase
            {
              OFFSET 0 16.0188 0
              CHANNELS 3 Zrotation Xrotation Yrotation
              End Site
              {
                OFFSET 0.00678979 7.75781 -0.894207
              }
            }
          }
        }
      }
    }
  }
  JOINT LeftUpLeg
  {
    OFFSET 7.06048 -1.2947 -1.0861
    CHANNELS 3 Zrotation Xrotation Yrotation
    JOINT LeftUpLegRoll
    {
      OFFSET 0 18.5309 0
      CHANNELS 3 Zrotation Xrotation Yrotation
      JOINT LeftLeg
      {
        OFFSET 0 22.9475 0
        CHANNELS 3 Zrotation Xrotation Yrotation
        JOINT LeftLegRoll
        {
          OFFSET 0 23.2355 0
          CHANNELS 3 Zrotation Xrotation Yrotation
          JOINT LeftFoot
          {
            OFFSET 0 18.9496 0
            CHANNELS 3 Zrotation Xrotation Yrotation
            JOINT LeftToeBase
            {
              OFFSET 0 16.0188 0
              CHANNELS 3 Zrotation Xrotation Yrotation
              End Site
              {
                OFFSET -0.0304289 7.75782 -0.894207
              }
            }
          }
        }
      }
    }
  }
}
MOTION
Frames: 4
Frame Time: 0.00208333
50.151 95.5088 5.60029 -1.75251 -2.34248 -4.60326 0.901247 -2.13956 0.0702328 1.80225 -0.291021 0.0717797 1.80191 1.35359 0.0414923 -5.17917 21.6976 7.8519 0.615823 -7.89729 6.17874 62.9427 3.79383 1.6162 107.236 4.84478 -22.1664 4.36599e-006 -1.03158e-006 3.88574e-007 29.8358 54.8865 -17.6682 7.80961e-006 -1.46546e-005 -3.00211 8.02896 -4.95119 0.697519 -76.7475 0.278704 1.95246 -99.6542 10.7659 28.5305 7.15625e-015 -9.54166e-015 3.18055e-015 -37.2934 55.6606 22.4096 1.93897e-005 1.4276e-006 3.00935 -8.02927 -4.95145 -0.697554 175.714 -4.56245 -2.67089 180 7.01503e-015 178.747 178.809 3.43272 179.54 -3.15761e-006 -4.01226e-006 0.0645602 -19.585 68.6927 20.1438 8.14043 25.3865 -3.28311 -169.89 -2.85219 -2.69864 4.54188e-006 -4.6773e-006 -1.22818 -2.64453 -8.93096 -0.00126855 5.41965e-008 -5.43316e-006 -0.255165 22.1558 71.3646 -22.8716 -8.141 25.4549 3.19449 
50.1447 95.4996 5.60135 -1.74068 -2.34947 -4.61644 0.897313 -2.1389 0.0694894 1.79444 -0.286823 0.0701797 1.7941 1.35779 0.0400329 -5.15257 21.7161 7.85138 0.574719 -7.89805 6.17929 62.9595 3.78564 1.6089 107.215 4.84079 -22.2441 4.36599e-006 -1.03158e-006 3.88574e-007 29.8808 54.9256 -17.7036 7.80961e-006 -1.46546e-005 -3.00211 8.02896 -4.95119 0.697519 -76.7206 0.294715 1.94279 -99.6555 10.7785 28.5489 -1.82882e-014 7.95139e-015 6.36111e-015 -37.3133 55.6604 22.4206 1.93897e-005 1.4276e-006 3.00935 -8.02927 -4.95145 -0.697554 175.696 -4.54776 -2.65432 180 7.01503e-015 178.747 178.798 3.47064 179.54 -3.15761e-006 -4.01226e-006 0.0664901 -19.6101 68.7232 20.1712 8.14003 25.3805 -3.2917 -169.916 -2.84984 -2.66495 4.54188e-006 -4.6773e-006 -1.22823 -2.6164 -8.9613 0.00152358 5.41965e-008 -5.43316e-006 -0.257598 22.1887 71.3941 -22.9067 -8.1409 25.4535 3.19627 
50.15 95.4508 5.60233 -1.72862 -2.35673 -4.62934 0.89328 -2.13823 0.0687531 1.78645 -0.282407 0.0686332 1.78613 1.36221 0.0386304 -5.12497 21.7344 7.8506 0.532145 -7.89888 6.17966 62.976 3.77666 1.60123 107.195 4.83643 -22.3226 4.36599e-006 -1.03158e-006 3.88574e-007 29.9263 54.9651 -17.7395 7.80961e-006 -1.46546e-005 -3.00211 8.02896 -4.95119 0.697519 -76.6928 0.311501 1.93271 -99.6578 10.7903 28.567 1.03368e-014 -6.36111e-015 1.27222e-014 -37.333 55.661 22.432 1.93897e-005 1.4276e-006 3.00935 -8.02927 -4.95145 -0.697554 175.677 -4.53177 -2.63756 180 7.01503e-015 178.747 178.787 3.51205 179.541 -3.15761e-006 -4.01226e-006 0.0685906 -19.6374 68.7561 20.2008 8.13961 25.3741 -3.30066 -169.944 -2.84629 -2.62961 4.54188e-006 -4.6773e-006 -1.22823 -2.58666 -8.99446 0.00446587 5.41965e-008 -5.43316e-006 -0.260194 22.2241 71.4257 -22.9446 -8.14079 25.4518 3.19833 
50.134 95.47 5.60336 -1.71638 -2.36419 -4.64205 0.889176 -2.13756 0.0680217 1.77835 -0.277838 0.0671243 1.77805 1.36678 0.0372675 -5.09667 21.7526 7.84963 0.48854 -7.89976 6.17991 62.9921 3.76713 1.5933 107.175 4.83182 -22.4017 4.36599e-006 -1.03158e-006 3.88574e-007 29.9722 55.0048 -17.7757 7.80961e-006 -1.46546e-005 -3.00211 8.02896 -4.95119 0.697519 -76.6645 0.328828 1.92234 -99.6606 10.8017 28.5851 7.95139e-015 -7.95139e-015 -0 -37.3526 55.662 22.4437 1.93897e-005 1.4276e-006 3.00935 -8.02927 -4.95145 -0.697554 175.657 -4.51487 -2.62065 180 7.01503e-015 178.747 178.776 3.5559 179.541 -3.15761e-006 -4.01226e-006 0.0708105 -19.6663 68.7909 20.2322 8.13918 25.3676 -3.30988 -169.973 -2.84191 -2.59311 4.54188e-006 -4.6773e-006 -1.22821 -2.5558 -9.02959 0.00751352 5.41965e-008 -5.43316e-006 -0.262905 22.2613 71.4588 -22.9843 -8.14066 25.45 3.20058 
